<?xml version="1.0" encoding="utf-8"?>
<svg version="1.1" id="Capa_1" xmlns="http://www.w3.org/2000/svg" xmlns:xlink="http://www.w3.org/1999/xlink" x="0px" y="0px"
	 viewBox="0 0 210 178.7" style="enable-background:new 0 0 210 178.7;" xml:space="preserve">
<style type="text/css">
	.st0{fill:#6861FF;}
	.st1{fill:#A1D9FF;}
	.st2{fill:#7F93FF;}
</style>
<g>
	<path class="st0" d="M105.4,96.4c18.5,0,33.6,14.2,33.6,31.2h14.1c0-25-21.4-45.4-47.7-45.4s-47.7,20.4-47.7,45.4h14.1
		C71.9,110.7,86.9,96.4,105.4,96.4z"/>
	<path class="st1" d="M105.4,82.3c-18.5,0-33.6-14.2-33.6-31.2H57.7c0,25,21.4,45.4,47.7,45.4s47.7-20.4,47.7-45.4H139
		C139,68.1,123.9,82.3,105.4,82.3z"/>
	<path class="st2" d="M105.4,82.3c-9.4,0-18.2,2.6-25.5,7.1c7.4,4.5,16.2,7.1,25.5,7.1c9.4,0,18.2-2.6,25.5-7.1
		C123.6,84.9,114.8,82.3,105.4,82.3z"/>
</g>
</svg>
